<?xml version="1.0" encoding="UTF-8" standalone="no"?>
<svg
   viewBox="0 0 665 665.00001"
   version="1.1"
   id="svg260"
   sodipodi:docname="phone-missed.svg"
   width="665"
   height="665"
   inkscape:version="1.2 (dc2aedaf03, 2022-05-15)"
   inkscape:export-filename="phone-missed.png"
   inkscape:export-xdpi="36.934303"
   inkscape:export-ydpi="36.934303"
   xml:space="preserve"
   xmlns:inkscape="http://www.inkscape.org/namespaces/inkscape"
   xmlns:sodipodi="http://sodipodi.sourceforge.net/DTD/sodipodi-0.dtd"
   xmlns="http://www.w3.org/2000/svg"
   xmlns:svg="http://www.w3.org/2000/svg"><defs
     id="defs264" /><sodipodi:namedview
     id="namedview262"
     pagecolor="#ffffff"
     bordercolor="#666666"
     borderopacity="1.0"
     inkscape:showpageshadow="2"
     inkscape:pageopacity="0.0"
     inkscape:pagecheckerboard="0"
     inkscape:deskcolor="#d1d1d1"
     showgrid="false"
     inkscape:zoom="0.69091978"
     inkscape:cx="716.43628"
     inkscape:cy="345.9157"
     inkscape:window-width="1920"
     inkscape:window-height="1000"
     inkscape:window-x="0"
     inkscape:window-y="27"
     inkscape:window-maximized="1"
     inkscape:current-layer="svg260" /><!--! Font Awesome Free 6.1.1 by @fontawesome - https://fontawesome.com License - https://fontawesome.com/license/free (Icons: CC BY 4.0, Fonts: SIL OFL 1.1, Code: MIT License) Copyright 2022 Fonticons, Inc. --><path
     d="M 66.669525,559.86193 12.015968,475.53883 C 4.2753099,463.63252 5.9017244,448.23536 15.991449,438.11013 189.52549,263.99302 474.46985,261.35422 651.29122,432.24727 c 10.27429,9.92983 12.20631,25.30429 4.68248,37.34169 l -53.03374,85.32038 c -7.71235,12.43644 -23.36944,17.62811 -37.30794,12.42195 L 457.59559,525.94795 c -12.69685,-4.90312 -20.60955,-17.52037 -19.36927,-30.88709 l 6.73285,-66.44182 c -71.88276,-23.43251 -150.03416,-22.70877 -221.48453,2.05112 l 7.38773,66.86496 c 1.5796,13.2982 -6.12434,26.17906 -18.79332,31.25075 l -107.22008,43.38362 c -13.786791,4.35717 -30.285661,-0.0717 -38.179445,-12.30756 z"
     id="path258"
     style="stroke-width:0.974464" /><path
     id="path2802"
     style="stroke-width:0.811163"
     d="m 378.15191,85.727487 c -14.33324,0 -25.9571,11.59951 -25.9571,25.957103 0,14.35757 11.62386,25.95709 25.9571,25.95709 h 15.16892 l -66.87746,66.92616 -15.4395,-15.42868 -42.54117,-42.57092 -0.0298,0.027 -9.50019,-9.49207 c -5.06975,-5.06976 -11.71346,-7.60611 -18.3564,-7.60611 -6.64292,0 -13.28515,2.53635 -18.35368,7.60611 -10.1371,10.13951 -10.1371,26.52727 0,36.66679 l 8.44761,8.45304 -0.0162,0.0162 23.32702,23.31079 42.54116,42.57093 0.0298,-0.027 8.99961,8.99149 c 0.71333,0.94116 1.47355,1.86029 2.33244,2.71938 10.13709,10.13953 26.57054,10.13953 36.71007,0 l 85.47199,-85.41515 v 15.1662 c 0,14.35757 11.59949,25.9598 25.95708,25.9598 14.35758,0 25.95709,-11.60223 25.95709,-25.9598 v -78.59913 c 0,-2.75795 -0.72876,-6.16608 -1.94549,-9.16738 -1.29784,-3.082423 -3.16489,-5.922183 -5.59838,-8.436803 l -0.0812,-0.0812 c -4.70474,-4.62361 -11.11265,-7.54387 -18.25087,-7.54387 h -0.0812 z" /></svg>
